<svg width="25" height="24" viewBox="0 0 25 24" fill="none" xmlns="http://www.w3.org/2000/svg">
<path d="M7.55859 11H9.55859V13H7.55859V11ZM21.5586 5V19C21.5586 20.11 20.6686 21 19.5586 21H5.55859C4.44859 21 3.55859 20.1 3.55859 19V5C3.55859 3.9 4.45859 3 5.55859 3H6.55859V1H8.55859V3H16.5586V1H18.5586V3H19.5586C20.6686 3 21.5586 3.9 21.5586 5ZM5.55859 7H19.5586V5H5.55859V7ZM19.5586 19V9H5.55859V19H19.5586ZM15.5586 13V11H17.5586V13H15.5586ZM11.5586 13V11H13.5586V13H11.5586ZM7.55859 15H9.55859V17H7.55859V15ZM15.5586 17V15H17.5586V17H15.5586ZM11.5586 17V15H13.5586V17H11.5586Z" fill="#202026"/>
</svg>
