<svg width="25" height="24" viewBox="0 0 25 24" fill="none" xmlns="http://www.w3.org/2000/svg">
<path d="M13.5008 2.02979C18.2308 2.49979 22.0008 6.24979 22.4508 10.9998C23.0008 16.4998 19.0008 21.3798 13.5008 21.9298V19.9298C17.1408 19.4998 20.0008 16.6098 20.4608 12.9698C21.0008 8.57979 17.8908 4.58979 13.5008 4.04979V2.04979V2.02979ZM11.5008 2.05979V4.05979C10.0708 4.25979 8.72078 4.83978 7.60078 5.73978L6.17078 4.25979C7.69078 2.99979 9.55078 2.24979 11.5008 2.05979ZM4.76078 5.66979L6.19078 7.09978C5.30078 8.22978 4.74078 9.57979 4.55078 10.9998H2.55078C2.75078 9.03979 3.50078 7.18979 4.76078 5.66979ZM2.56078 12.9998H4.56078C4.74078 14.4198 5.31078 15.7698 6.19078 16.8998L4.77078 18.3298C3.53078 16.8098 2.76078 14.9598 2.56078 12.9998ZM7.60078 18.3698C8.73078 19.2498 10.0808 19.8198 11.5008 19.9998V21.9998C9.54078 21.7898 7.68078 20.9998 6.17078 19.7398L7.60078 18.3698ZM12.5008 16.4998L8.00078 11.9998H11.5008V7.99979H13.5008V11.9998H17.0008L12.5008 16.4998Z" fill="#1BB978"/>
</svg>
