<svg width="25" height="24" viewBox="0 0 25 24" fill="none" xmlns="http://www.w3.org/2000/svg">
<path d="M12.5586 11.5C11.8956 11.5 11.2597 11.2366 10.7908 10.7678C10.322 10.2989 10.0586 9.66304 10.0586 9C10.0586 8.33696 10.322 7.70107 10.7908 7.23223C11.2597 6.76339 11.8956 6.5 12.5586 6.5C13.2216 6.5 13.8575 6.76339 14.3264 7.23223C14.7952 7.70107 15.0586 8.33696 15.0586 9C15.0586 9.3283 14.9939 9.65339 14.8683 9.95671C14.7427 10.26 14.5585 10.5356 14.3264 10.7678C14.0942 10.9999 13.8186 11.1841 13.5153 11.3097C13.212 11.4353 12.8869 11.5 12.5586 11.5ZM12.5586 2C10.7021 2 8.9216 2.7375 7.60885 4.05025C6.29609 5.36301 5.55859 7.14348 5.55859 9C5.55859 14.25 12.5586 22 12.5586 22C12.5586 22 19.5586 14.25 19.5586 9C19.5586 7.14348 18.8211 5.36301 17.5083 4.05025C16.1956 2.7375 14.4151 2 12.5586 2Z" fill="#52B676"/>
</svg>
