<svg width="25" height="25" viewBox="0 0 25 25" fill="none" xmlns="http://www.w3.org/2000/svg">
<path d="M8.33906 2.70312H16.7391C19.9391 2.70312 22.5391 5.30313 22.5391 8.50313V16.9031C22.5391 18.4414 21.928 19.9166 20.8403 21.0043C19.7526 22.0921 18.2773 22.7031 16.7391 22.7031H8.33906C5.13906 22.7031 2.53906 20.1031 2.53906 16.9031V8.50313C2.53906 6.96487 3.15013 5.48962 4.23784 4.40191C5.32555 3.31419 6.80081 2.70313 8.33906 2.70312ZM8.13906 4.70312C7.18428 4.70313 6.26861 5.08241 5.59348 5.75754C4.91835 6.43267 4.53906 7.34835 4.53906 8.30312V17.1031C4.53906 19.0931 6.14906 20.7031 8.13906 20.7031H16.9391C17.8938 20.7031 18.8095 20.3238 19.4846 19.6487C20.1598 18.9736 20.5391 18.0579 20.5391 17.1031V8.30312C20.5391 6.31312 18.9291 4.70312 16.9391 4.70312H8.13906ZM17.7891 6.20312C18.1206 6.20312 18.4385 6.33482 18.6729 6.56924C18.9074 6.80366 19.0391 7.1216 19.0391 7.45312C19.0391 7.78465 18.9074 8.10259 18.6729 8.33701C18.4385 8.57143 18.1206 8.70312 17.7891 8.70312C17.4575 8.70312 17.1396 8.57143 16.9052 8.33701C16.6708 8.10259 16.5391 7.78465 16.5391 7.45312C16.5391 7.1216 16.6708 6.80366 16.9052 6.56924C17.1396 6.33482 17.4575 6.20312 17.7891 6.20312ZM12.5391 7.70312C13.8651 7.70313 15.1369 8.22991 16.0746 9.16759C17.0123 10.1053 17.5391 11.377 17.5391 12.7031C17.5391 14.0292 17.0123 15.301 16.0746 16.2387C15.1369 17.1763 13.8651 17.7031 12.5391 17.7031C11.213 17.7031 9.94121 17.1763 9.00353 16.2387C8.06585 15.301 7.53906 14.0292 7.53906 12.7031C7.53906 11.377 8.06585 10.1053 9.00353 9.16759C9.94121 8.22991 11.213 7.70313 12.5391 7.70312ZM12.5391 9.70312C11.7434 9.70312 10.9804 10.0192 10.4177 10.5818C9.85513 11.1444 9.53906 11.9075 9.53906 12.7031C9.53906 13.4988 9.85513 14.2618 10.4177 14.8244C10.9804 15.3871 11.7434 15.7031 12.5391 15.7031C13.3347 15.7031 14.0978 15.3871 14.6604 14.8244C15.223 14.2618 15.5391 13.4988 15.5391 12.7031C15.5391 11.9075 15.223 11.1444 14.6604 10.5818C14.0978 10.0192 13.3347 9.70312 12.5391 9.70312Z" fill="black"/>
</svg>
