<svg width="41" height="47" viewBox="0 0 41 47" fill="none" xmlns="http://www.w3.org/2000/svg">
<path d="M41.0001 13.578V23.3582C41.0001 24.3758 40.4572 25.3162 39.5759 25.825L21.9242 36.0162C21.0429 36.525 19.9571 36.525 19.0759 36.0162L1.42418 25.825C0.542894 25.3162 0 24.3758 0 23.3582V13.578C0 12.5604 0.542894 11.6201 1.42418 11.1113L19.0759 0.920084C19.9571 0.411273 21.0429 0.411273 21.9242 0.920084L39.5759 11.1113C40.4572 11.6201 41.0001 12.5604 41.0001 13.578Z" fill="#1BB978"/>
<path d="M0.237363 27.8806C0.156679 27.834 0.0775427 27.7855 0 27.735V28.422C0 29.4396 0.542894 30.3799 1.42418 30.8887L19.0759 41.0799C19.9571 41.5887 21.0429 41.5887 21.9242 41.0799L30.7501 35.9843L39.5759 30.8887C40.4572 30.3799 41.0001 29.4396 41.0001 28.422V27.735C40.9225 27.7855 40.8434 27.834 40.7627 27.8806L23.111 38.0718C21.4953 39.0046 19.5047 39.0046 17.889 38.0718L0.237363 27.8806Z" fill="#1BB978"/>
<path d="M0 33.9604V32.7988C0.0775427 32.8492 0.156679 32.8978 0.237363 32.9443L17.889 43.1355C19.5047 44.0684 21.4953 44.0684 23.111 43.1355L40.7627 32.9443C40.8434 32.8978 40.9225 32.8492 41.0001 32.7988V33.9604C41.0001 34.9781 40.4572 35.9184 39.5759 36.4272L21.9242 46.6184C21.0429 47.1272 19.9571 47.1272 19.0759 46.6184L1.42418 36.4272C0.542894 35.9184 0 34.9781 0 33.9604Z" fill="#1BB978"/>
</svg>
