<svg width="25" height="25" viewBox="0 0 25 25" fill="none" xmlns="http://www.w3.org/2000/svg">
<path d="M12.6172 12.1162C11.9541 12.1162 11.3183 11.8528 10.8494 11.384C10.3806 10.9151 10.1172 10.2793 10.1172 9.61621C10.1172 8.95317 10.3806 8.31728 10.8494 7.84844C11.3183 7.3796 11.9541 7.11621 12.6172 7.11621C13.2802 7.11621 13.9161 7.3796 14.385 7.84844C14.8538 8.31728 15.1172 8.95317 15.1172 9.61621C15.1172 9.94452 15.0525 10.2696 14.9269 10.5729C14.8012 10.8762 14.6171 11.1518 14.385 11.384C14.1528 11.6161 13.8772 11.8003 13.5739 11.9259C13.2706 12.0515 12.9455 12.1162 12.6172 12.1162ZM12.6172 2.61621C10.7607 2.61621 8.98019 3.35371 7.66744 4.66646C6.35469 5.97922 5.61719 7.7597 5.61719 9.61621C5.61719 14.8662 12.6172 22.6162 12.6172 22.6162C12.6172 22.6162 19.6172 14.8662 19.6172 9.61621C19.6172 7.7597 18.8797 5.97922 17.5669 4.66646C16.2542 3.35371 14.4737 2.61621 12.6172 2.61621Z" fill="white"/>
</svg>
