<svg width="25" height="25" viewBox="0 0 25 25" fill="none" xmlns="http://www.w3.org/2000/svg">
<path d="M19.1953 15.8193V3.81934H23.1953V15.8193H19.1953ZM15.1953 3.81934C15.7257 3.81934 16.2345 4.03005 16.6095 4.40512C16.9846 4.7802 17.1953 5.2889 17.1953 5.81934V15.8193C17.1953 16.3693 16.9753 16.8693 16.6053 17.2293L10.0253 23.8193L8.96531 22.7593C8.69531 22.4893 8.52531 22.1193 8.52531 21.6993L8.55531 21.3893L9.50531 16.8193H3.19531C2.08531 16.8193 1.19531 15.9193 1.19531 14.8193V12.8193C1.19531 12.5593 1.24531 12.3193 1.33531 12.0893L4.35531 5.03934C4.65531 4.31934 5.36531 3.81934 6.19531 3.81934H15.1953ZM15.1953 5.81934H6.16531L3.19531 12.8193V14.8193H11.9753L10.8453 20.1393L15.1953 15.7893V5.81934Z" fill="white"/>
</svg>
