<svg width="32" height="32" viewBox="0 0 32 32" fill="none" xmlns="http://www.w3.org/2000/svg">
<path d="M29 15.9999C28.9936 19.1761 27.8279 22.2406 25.722 24.6181C23.616 26.9957 20.7146 28.5227 17.5625 28.9124C17.4922 28.9194 17.4211 28.9116 17.3539 28.8898C17.2867 28.8679 17.2247 28.8324 17.1719 28.7854C17.1191 28.7385 17.0765 28.6811 17.047 28.6169C17.0174 28.5527 17.0014 28.4831 17 28.4124V18.9999H20C20.1368 19.0002 20.2721 18.9724 20.3977 18.9183C20.5233 18.8642 20.6364 18.7849 20.7302 18.6853C20.8239 18.5857 20.8962 18.468 20.9426 18.3394C20.989 18.2107 21.0085 18.0739 21 17.9374C20.9779 17.6789 20.8585 17.4383 20.6659 17.2643C20.4734 17.0903 20.222 16.9958 19.9625 16.9999H17V13.9999C17 13.4695 17.2107 12.9608 17.5858 12.5857C17.9609 12.2107 18.4696 11.9999 19 11.9999H21C21.1368 12.0002 21.2721 11.9724 21.3977 11.9183C21.5233 11.8642 21.6364 11.7849 21.7302 11.6853C21.8239 11.5857 21.8962 11.468 21.9426 11.3394C21.989 11.2107 22.0085 11.0739 22 10.9374C21.9779 10.6789 21.8585 10.4383 21.6659 10.2643C21.4734 10.0903 21.222 9.99584 20.9625 9.99995H19C17.9391 9.99995 16.9217 10.4214 16.1716 11.1715C15.4214 11.9217 15 12.9391 15 13.9999V16.9999H12C11.8633 16.9997 11.7279 17.0275 11.6023 17.0816C11.4767 17.1357 11.3636 17.215 11.2698 17.3146C11.1761 17.4142 11.1038 17.5319 11.0574 17.6605C11.011 17.7892 10.9915 17.926 11 18.0624C11.0221 18.321 11.1415 18.5616 11.3341 18.7356C11.5266 18.9096 11.778 19.0041 12.0375 18.9999H15V28.4124C15.0004 28.4825 14.986 28.5519 14.9578 28.6161C14.9296 28.6803 14.8882 28.7378 14.8363 28.7849C14.7845 28.8321 14.7233 28.8678 14.6567 28.8898C14.5902 28.9117 14.5197 28.9195 14.45 28.9124C7.85 28.1124 2.75 22.3749 3.0125 15.5124C3.15986 12.1234 4.62607 8.92624 7.09817 6.60333C9.57027 4.28042 12.8524 3.01581 16.2441 3.07944C19.6357 3.14306 22.8681 4.52988 25.2513 6.94387C27.6346 9.35785 28.9799 12.6078 29 15.9999V15.9999Z" fill="black"/>
</svg>
