<svg width="25" height="25" viewBox="0 0 25 25" fill="none" xmlns="http://www.w3.org/2000/svg">
<path d="M5.80469 9.81934V21.8193H1.80469V9.81934H5.80469ZM9.80469 21.8193C9.27425 21.8193 8.76555 21.6086 8.39047 21.2335C8.0154 20.8585 7.80469 20.3498 7.80469 19.8193V9.81934C7.80469 9.26934 8.02469 8.76934 8.39469 8.40934L14.9747 1.81934L16.0347 2.87934C16.3047 3.14934 16.4747 3.51934 16.4747 3.92934L16.4447 4.24934L15.4947 8.81934H21.8047C22.9147 8.81934 23.8047 9.71934 23.8047 10.8193V12.8193C23.8047 13.0793 23.7547 13.3193 23.6647 13.5493L20.6447 20.5993C20.3447 21.3193 19.6347 21.8193 18.8047 21.8193H9.80469ZM9.80469 19.8193H18.8347L21.8047 12.8193V10.8193H13.0147L14.1447 5.49934L9.80469 9.84934V19.8193Z" fill="white"/>
</svg>
