<svg width="25" height="25" viewBox="0 0 25 25" fill="none" xmlns="http://www.w3.org/2000/svg">
<path d="M16.6914 12.8162C16.6914 14.3262 15.3314 15.5562 13.2714 17.4262L12.6914 17.9562L12.1114 17.4262C10.0514 15.5562 8.69141 14.3262 8.69141 12.8162C8.69141 11.5862 9.66141 10.6162 10.8914 10.6162C11.5914 10.6162 12.2514 10.9362 12.6914 11.4462C13.1314 10.9362 13.7914 10.6162 14.4914 10.6162C15.7214 10.6162 16.6914 11.5862 16.6914 12.8162ZM21.6914 5.61621V19.6162C21.6914 20.7262 20.8014 21.6162 19.6914 21.6162H5.69141C4.59141 21.6162 3.69141 20.7262 3.69141 19.6162V5.61621C3.69141 4.51621 4.59141 3.61621 5.69141 3.61621H6.69141V1.61621H8.69141V3.61621H16.6914V1.61621H18.6914V3.61621H19.6914C20.8014 3.61621 21.6914 4.51621 21.6914 5.61621ZM5.69141 5.61621V7.61621H19.6914V5.61621H5.69141ZM19.6914 19.6162V9.61621H5.69141V19.6162H19.6914Z" fill="white"/>
</svg>
